HIERARCHY
ROOT Hips
{
	OFFSET -0.179506 -22.333345 2.821913
	CHANNELS 6 Xposition Yposition Zposition Zrotation Yrotation Xrotation 
	JOINT LeftUpLeg
	{
		OFFSET 6.951974 -9.140623 -0.681533
		CHANNELS 3 Zrotation Yrotation Xrotation
		JOINT LeftLeg
		{
			OFFSET 3.427654 -37.519855 -0.449580
			CHANNELS 3 Zrotation Yrotation Xrotation
			JOINT LeftFoot
			{
				OFFSET -1.359570 -39.796059 -4.369333
				CHANNELS 3 Zrotation Yrotation Xrotation
				JOINT LeftToe
				{
					OFFSET 2.635814 -5.579078 11.928840
					CHANNELS 3 Zrotation Yrotation Xrotation
					End Site
					{
						OFFSET 0.000000 0.000000 0.000000
					}
				}
			}
		}
	}
	JOINT RightUpLeg
	{
		OFFSET -6.767048 -9.052170 -0.431982
		CHANNELS 3 Zrotation Yrotation Xrotation
		JOINT RightLeg
		{
			OFFSET -3.829005 -38.256897 -0.885003
			CHANNELS 3 Zrotation Yrotation Xrotation
			JOINT RightFoot
			{
				OFFSET 1.577377 -39.841461 -4.231180
				CHANNELS 3 Zrotation Yrotation Xrotation
				JOINT RightToe
				{
					OFFSET -2.537174 -4.814398 12.334795
					CHANNELS 3 Zrotation Yrotation Xrotation
					End Site
					{
						OFFSET 0.000000 0.000000 0.000000
					}
				}
			}
		}
	}
	JOINT Spine
	{
		OFFSET -0.253288 10.896323 -2.669631
		CHANNELS 3 Zrotation Yrotation Xrotation
		JOINT Spine1
		{
			OFFSET 0.548704 13.518043 0.109247
			CHANNELS 3 Zrotation Yrotation Xrotation
			JOINT Spine2
			{
				OFFSET 0.145701 5.292222 2.542457
				CHANNELS 3 Zrotation Yrotation Xrotation
				JOINT Neck
				{
					OFFSET -0.277840 21.387037 -4.285703
					CHANNELS 3 Zrotation Yrotation Xrotation
					JOINT Head
					{
						OFFSET 0.515184 6.496960 5.134897
						CHANNELS 3 Zrotation Yrotation Xrotation
						End Site
						{
							OFFSET 0.000000 0.000000 0.000000
						}
					}
				}
				JOINT LeftShoulder
				{
					OFFSET 7.884473 12.174932 -3.408961
					CHANNELS 3 Zrotation Yrotation Xrotation
					JOINT LeftArm
					{
						OFFSET 9.097692 3.046888 -0.886815
						CHANNELS 3 Zrotation Yrotation Xrotation
						JOINT LeftForeArm
						{
							OFFSET 25.961220 -1.277207 -2.745643
							CHANNELS 3 Zrotation Yrotation Xrotation
							JOINT LeftHand
							{
								OFFSET 24.923361 0.898606 -0.117091
								CHANNELS 3 Zrotation Yrotation Xrotation
								End Site
								{
									OFFSET 0.000000 0.000000 0.000000
								}
							}
						}
					}
				}
				JOINT RightShoulder
				{
					OFFSET -8.175920 11.883285 -3.861528
					CHANNELS 3 Zrotation Yrotation Xrotation
					JOINT RightArm
					{
						OFFSET -9.601238 3.255117 -0.914307
						CHANNELS 3 Zrotation Yrotation Xrotation
						JOINT RightForeArm
						{
							OFFSET -25.374195 -1.332924 -2.140099
							CHANNELS 3 Zrotation Yrotation Xrotation
							JOINT RightHand
							{
								OFFSET -25.529810 0.777228 -0.555919
								CHANNELS 3 Zrotation Yrotation Xrotation
								End Site
								{
									OFFSET 0.000000 0.000000 0.000000
								}
							}
						}
					}
				}
			}
		}
	}
}
MOTION
Frames: 7
Frame Time: 0.033333
4.976662 3.949357 86.795113 -152.134720 2.671291 79.464949 15.137470 8.083611 5.200882 -8.117072 3.626544 36.781426 4.185036 16.445976 -37.782391 nan nan nan -18.478257 -4.134695 -23.512052 2.495922 -1.298213 25.423370 6.998921 -1.609755 0.064354 nan nan nan -5.579035 -2.526865 10.146044 13.924058 -7.412508 8.397479 4.395029 -2.128322 -2.490103 3.681321 4.271720 18.479461 -2.664557 -19.288534 7.827475 10.036670 -9.647287 -7.149986 -11.315748 -63.617596 -17.294851 95.388121 -66.845944 -71.875309 -4.194202 -8.405032 13.613882 16.672554 11.348817 -5.219422 51.809731 4.188324 22.224766 114.322691 84.433503 138.708291 24.755862 8.541900 -12.950330 
5.092188 4.222494 87.040741 -150.930288 2.615447 79.692566 15.142303 7.188134 5.571134 -8.962198 1.745473 34.696448 3.763787 16.358403 -37.614065 nan nan nan -18.968664 -4.601065 -22.604529 2.729500 -1.295355 24.013933 6.928971 -1.286516 1.238727 nan nan nan -5.570928 -1.977303 9.515943 13.934977 -7.374175 9.262404 4.285219 -2.004051 -3.078470 3.316640 3.556424 18.318336 -2.246025 -19.079042 8.070057 9.686609 -10.579759 -6.627005 -16.394421 -65.813662 -13.035050 96.063918 -66.582028 -72.893166 -3.968026 -8.073860 10.653131 16.179545 11.594423 -5.283446 51.666763 4.928087 21.651979 126.227314 85.008305 150.167573 24.733101 8.343274 -14.117318 
5.318309 4.492063 87.306183 -149.746849 2.720162 79.950276 15.441506 6.904874 5.556915 -8.955138 1.190945 33.764403 3.705648 15.799932 -36.976833 nan nan nan -19.178886 -4.842674 -21.767776 2.888216 -1.181658 22.765757 7.078573 -0.730694 2.532878 nan nan nan -5.544962 -1.387477 8.876053 13.993808 -7.335143 10.146997 4.304795 -1.960905 -3.634430 3.022404 3.027355 18.419164 -1.796831 -18.618087 7.917521 9.282518 -11.663923 -6.192992 -22.225012 -67.353714 -7.859506 97.284954 -66.406778 -74.297622 -3.572522 -7.673210 8.377314 15.583009 11.876783 -5.414278 51.458769 5.887813 21.414381 141.642884 85.548637 164.834760 24.522132 8.634569 -15.995043 
5.812800 4.759686 87.513306 -148.308090 3.043211 80.582731 16.245245 7.179753 4.385750 -8.380274 2.013512 34.414107 4.112449 14.660734 -36.086618 nan nan nan -18.993724 -4.902263 -21.432404 2.840458 -1.126450 21.906997 7.358717 -0.327349 3.640429 nan nan nan -5.696306 -0.999568 8.339926 14.085174 -7.335131 10.089494 4.533324 -1.821967 -3.605302 2.921255 2.378472 18.464825 -1.387428 -17.982176 7.967111 9.031658 -13.001647 -5.822963 -27.447989 -68.010419 -3.339492 99.314342 -66.944022 -76.445888 -2.663982 -7.279619 6.371884 14.985297 12.096809 -5.567588 51.250012 6.942284 20.900256 155.538913 85.663241 178.066675 23.922394 8.946459 -17.672064 
6.088214 5.096609 87.758698 -146.771728 2.925689 80.951694 16.338253 6.684145 4.162145 -8.634208 1.168042 33.383052 3.925313 14.159229 -35.551567 nan nan nan -19.473512 -5.324613 -20.587482 3.130958 -0.810240 20.982910 7.849220 0.223995 4.648172 nan nan nan -5.848230 -0.550179 7.734562 13.939253 -7.496602 10.669485 4.501238 -1.674050 -4.085677 2.451591 1.388750 18.424110 -0.913635 -17.326766 8.096534 8.461221 -14.204040 -5.216907 -33.100504 -68.678621 1.666012 100.916740 -67.497477 -78.385517 -2.342029 -7.358937 3.604064 14.551432 12.102905 -5.417345 51.024641 7.996387 19.839945 168.605671 85.428239 -169.273995 23.729750 8.825247 -17.768408 
6.429058 5.396297 87.964325 -145.364644 2.857379 81.538689 16.503484 6.046859 3.697142 -8.927893 0.414913 32.225228 3.495349 13.714008 -35.195653 nan nan nan -19.842544 -5.518765 -20.110011 3.349163 -0.806088 20.242397 8.750317 0.593837 5.542983 nan nan nan -5.901055 -0.176001 7.032578 13.736792 -7.449361 11.032119 4.475019 -1.659305 -4.327528 1.883258 0.849403 17.995904 -0.513941 -17.056579 8.280063 7.965456 -15.157019 -5.077319 -41.202482 -68.916832 9.089539 102.002353 -67.482139 -79.740616 -2.843051 -8.070507 0.612942 14.083686 12.203916 -5.378985 50.853359 8.942816 18.846794 -175.749053 84.918593 -154.015619 23.359297 8.739975 -17.763318 
6.723616 5.769788 88.199417 -144.037503 2.845097 81.906784 16.800320 5.725351 3.538639 -8.954989 -0.267241 31.147370 3.173966 13.096723 -34.735262 nan nan nan -20.072349 -5.650526 -19.351393 3.418888 -1.035853 19.542272 9.483256 0.544215 5.784958 nan nan nan -5.774445 0.188583 6.461871 13.485228 -7.366745 11.556425 4.419930 -1.796058 -4.680547 1.388909 0.533142 18.130103 0.028158 -16.675694 7.862851 7.235319 -16.037283 -5.052850 -49.171276 -68.296063 16.563372 103.386112 -67.541838 -81.086138 -3.067910 -8.969099 -2.296369 13.515143 12.536460 -5.545196 50.532593 9.779852 18.390571 -160.101992 84.192630 -138.740088 22.221707 9.006848 -18.827427 
